<?xml version="1.0" encoding="iso-8859-1"?>
<!-- Uploaded to: SVG Repo, www.svgrepo.com, Generator: SVG Repo Mixer Tools -->
<svg height="800px" width="800px" version="1.1" id="Layer_1" xmlns="http://www.w3.org/2000/svg" xmlns:xlink="http://www.w3.org/1999/xlink" 
	 viewBox="0 0 511.999 511.999" xml:space="preserve">
<path style="fill:#CE5C82;" d="M375.07,74.12c-41.199,0-74.716,33.518-74.716,74.716c0,41.199,33.517,74.717,74.716,74.717
	s74.716-33.517,74.716-74.717C449.786,107.637,416.269,74.12,375.07,74.12z"/>
<path style="fill:#D6E5F6;" d="M375.07,259.274c-24.072,0-47.754,6.338-68.484,18.331c-8.539,4.94-11.454,15.865-6.516,24.405
	c4.937,8.534,15.853,11.449,24.388,6.524l41.689,72.213c-5.338,3.089-8.939,8.847-8.939,15.456c0,9.864,7.997,17.86,17.86,17.86
	h119.07c9.864,0,17.86-7.997,17.86-17.86C512,320.7,450.573,259.274,375.07,259.274z"/>
<path style="fill:#CE5C82;" d="M136.93,74.12c-41.199,0-74.716,33.518-74.716,74.716c0,41.199,33.517,74.717,74.716,74.717
	s74.716-33.517,74.716-74.717C211.646,107.637,178.13,74.12,136.93,74.12z"/>
<path style="fill:#A4C6EC;" d="M205.414,277.605c-20.73-11.993-44.412-18.331-68.484-18.331C61.427,259.274,0,320.701,0,396.205
	c0,9.864,7.997,17.86,17.86,17.86h119.07c9.864,0,17.86-7.997,17.86-17.86c0-6.611-3.599-12.369-8.939-15.456l41.689-72.213
	c8.534,4.927,19.452,2.01,24.388-6.524C216.869,293.47,213.952,282.545,205.414,277.605z"/>
<path style="fill:#D6E5F6;" d="M256,259.274c-75.503,0-136.93,61.427-136.93,136.93c0,9.864,7.997,17.86,17.86,17.86h238.14
	c9.864,0,17.86-7.997,17.86-17.86C392.93,320.7,331.503,259.274,256,259.274z"/>
<path style="fill:#A4C6EC;" d="M256,259.274v154.791h119.07c9.864,0,17.86-7.997,17.86-17.86
	C392.93,320.7,331.503,259.274,256,259.274z"/>
<path style="fill:#1D3366;" d="M256,259.274c-9.864,0-17.86,7.997-17.86,17.86v142.884c0,9.864,7.997,17.86,17.86,17.86
	c9.864,0,17.86-7.997,17.86-17.86V277.135C273.86,267.27,265.864,259.274,256,259.274z"/>
<path style="fill:#DC85A6;" d="M256,74.12c-41.199,0-74.716,33.518-74.716,74.716c0,41.199,33.517,74.717,74.716,74.717
	s74.716-33.517,74.716-74.717C330.716,107.637,297.199,74.12,256,74.12z"/>
</svg>