<?xml version="1.0" encoding="utf-8"?>
<!-- Uploaded to: SVG Repo, www.svgrepo.com, Generator: SVG Repo Mixer Tools -->
<svg width="800px" height="800px" viewBox="0 0 1024 1024" class="icon"  version="1.1" xmlns="http://www.w3.org/2000/svg"><path d="M953.424 411.928l-60.304-106.096c-4.352-7.648-15.112-13.904-23.904-13.904H141.888c-8.8 0-18.88 6.592-22.408 14.656L73.424 411.928" fill="#F7BB83" /><path d="M73.416 427.936a16.008 16.008 0 0 1-14.648-22.424l46.064-105.336c6.04-13.832 21.968-24.248 37.064-24.248h727.32c14.656 0 30.56 9.248 37.816 21.992l60.304 106.104a16 16 0 1 1-27.816 15.816l-60.304-106.096c-1.512-2.656-6.936-5.816-10-5.816H141.888c-2.432 0-6.776 2.84-7.744 5.064L88.08 418.344a16.016 16.016 0 0 1-14.664 9.592z" fill="#6E4123" /><path d="M825.424 211.928l-24.848-49.688c-3.936-7.872-14.36-14.312-23.152-14.312h-104c-8.8 0-18.528 6.744-21.616 14.984l-18.384 49.016" fill="#F7BB83" /><path d="M633.424 227.936a16.008 16.008 0 0 1-14.984-21.624l18.384-49.016c5.416-14.464 21.152-25.368 36.6-25.368h104c14.76 0 30.864 9.952 37.472 23.16l24.84 49.688a16 16 0 1 1-28.632 14.312l-24.84-49.688c-1.224-2.456-6.104-5.472-8.84-5.472h-104c-2.112 0-5.888 2.616-6.632 4.592l-18.384 49.024a16.032 16.032 0 0 1-14.984 10.392z" fill="#6E4123" /><path d="M369.424 131.928l-24.848-49.688c-3.936-7.872-14.36-14.312-23.152-14.312h-88c-8.8 0-19.816 6.112-24.48 13.568l-31.52 50.432" fill="#F7BB83" /><path d="M369.44 147.928a15.992 15.992 0 0 1-14.328-8.84l-24.84-49.688c-1.224-2.456-6.104-5.472-8.84-5.472h-88c-3.264 0-9.184 3.28-10.904 6.056l-31.52 50.432a16.016 16.016 0 0 1-27.144-16.968l31.52-50.432c7.64-12.216 23.64-21.088 38.048-21.088h88c14.76 0 30.864 9.952 37.472 23.152l24.84 49.688a16 16 0 0 1-14.304 23.16z" fill="#6E4123" /><path d="M129.424 914.44a381.336 81.488 0 1 0 762.672 0 381.336 81.488 0 1 0-762.672 0Z" fill="#B8CBCD" /><path d="M681.424 291.928h96v64h-96z" fill="#F7BB83" /><path d="M777.424 371.928h-96a16 16 0 0 1-16-16v-64a16 16 0 0 1 16-16h96a16 16 0 0 1 16 16v64a16 16 0 0 1-16 16z m-80-32h64v-32h-64v32z" fill="#6E4123" /><path d="M633.424 211.928h192v80h-192z" fill="#FFFFFF" /><path d="M825.424 307.928h-192a16 16 0 0 1-16-16v-80a16 16 0 0 1 16-16h192a16 16 0 0 1 16 16v80a16 16 0 0 1-16 16z m-176-32h160v-48h-160v48z" fill="#6E4123" /><path d="M225.424 211.928h96v144h-96z" fill="#F7BB83" /><path d="M321.424 371.928h-96a16 16 0 0 1-16-16v-144a16 16 0 0 1 16-16h96a16 16 0 0 1 16 16v144a16 16 0 0 1-16 16z m-80-32h64v-112h-64v112z" fill="#6E4123" /><path d="M177.424 131.928h192v80h-192z" fill="#FFFFFF" /><path d="M369.424 227.928h-192a16 16 0 0 1-16-16v-80a16 16 0 0 1 16-16h192a16 16 0 0 1 16 16v80a16 16 0 0 1-16 16z m-176-32h160v-48h-160v48z" fill="#6E4123" /><path d="M73.424 411.928h880v448h-880z" fill="#F7BB83" /><path d="M953.424 875.928h-880a16 16 0 0 1-16-16v-448a16 16 0 0 1 16-16h880a16 16 0 0 1 16 16v448a16 16 0 0 1-16 16z m-864-32h848v-416h-848v416z" fill="#6E4123" /><path d="M297.424 635.928m-176 0a176 176 0 1 0 352 0 176 176 0 1 0-352 0Z" fill="#FFFFFF" /><path d="M297.424 827.928c-105.864 0-192-86.136-192-192s86.136-192 192-192 192 86.136 192 192-86.136 192-192 192z m0-352c-88.224 0-160 71.776-160 160s71.776 160 160 160 160-71.776 160-160-71.776-160-160-160z" fill="#6E4123" /><path d="M297.424 507.928m-16 0a16 16 0 1 0 32 0 16 16 0 1 0-32 0Z" fill="#6E4123" /><path d="M297.424 507.928m-16 0a16 16 0 1 0 32 0 16 16 0 1 0-32 0Z" fill="#6E4123" /><path d="M177.416 643.904m-16 0a16 16 0 1 0 32 0 16 16 0 1 0-32 0Z" fill="#6E4123" /><path d="M297.424 763.928m-16 0a16 16 0 1 0 32 0 16 16 0 1 0-32 0Z" fill="#6E4123" /><path d="M417.424 643.92m-16 0a16 16 0 1 0 32 0 16 16 0 1 0-32 0Z" fill="#6E4123" /><path d="M353.424 659.928h-56a16 16 0 0 1-16-16v-80a16 16 0 0 1 32 0v64h40a16 16 0 0 1 0 32z" fill="#6E4123" /><path d="M729.424 635.928m-176 0a176 176 0 1 0 352 0 176 176 0 1 0-352 0Z" fill="#FFFFFF" /><path d="M729.424 827.928c-105.864 0-192-86.136-192-192s86.136-192 192-192 192 86.136 192 192-86.136 192-192 192z m0-352c-88.224 0-160 71.776-160 160s71.776 160 160 160 160-71.776 160-160-71.776-160-160-160z" fill="#6E4123" /><path d="M694.752 707.48a16 16 0 0 1-12.024-26.544l30.696-35.024V563.928a16 16 0 0 1 32 0v88c0 3.88-1.408 7.624-3.968 10.544l-34.664 39.552a15.952 15.952 0 0 1-12.04 5.456z" fill="#6E4123" /><path d="M145.424 859.928h136v96h-136z" fill="#F7BB83" /><path d="M281.424 971.928h-136a16 16 0 0 1-16-16v-96a16 16 0 0 1 16-16h136a16 16 0 0 1 16 16v96a16 16 0 0 1-16 16z m-120-32h104v-64h-104v64z" fill="#6E4123" /><path d="M745.424 859.928h136v96h-136z" fill="#F7BB83" /><path d="M881.424 971.928h-136a16 16 0 0 1-16-16v-96a16 16 0 0 1 16-16h136a16 16 0 0 1 16 16v96a16 16 0 0 1-16 16z m-120-32h104v-64h-104v64z" fill="#6E4123" /><path d="M337.424 67.928l32 64v80h-48v80h360-48v-80l24-64h136l32 64v80h-48 107.792l68.208 120v448h-72v96h-136v-96h-464v96h-136v-96h-72v-448l52.472-120h99.528v-80h-48v-80l40-64h120m0-32h-120a32.008 32.008 0 0 0-27.136 15.04l-40 64a32.024 32.024 0 0 0-4.864 16.96v80a32 32 0 0 0 32 32h16v16h-67.528a32 32 0 0 0-29.32 19.184l-52.472 120a32.008 32.008 0 0 0-2.68 12.816v448a32 32 0 0 0 32 32h40v64a32 32 0 0 0 32 32h136a32 32 0 0 0 32-32v-64h400v64a32 32 0 0 0 32 32h136a32 32 0 0 0 32-32v-64h40a32 32 0 0 0 32-32v-448c0-5.544-1.44-10.992-4.184-15.816l-68.208-120a32 32 0 0 0-27.824-16.184h-27.792v-48c0-4.968-1.16-9.864-3.376-14.312l-32-64a32.024 32.024 0 0 0-28.624-17.688h-136a31.992 31.992 0 0 0-29.96 20.768l-24 64a31.896 31.896 0 0 0-2.04 11.232v48h-248v-16h16a32 32 0 0 0 32-32v-80c0-4.968-1.16-9.864-3.376-14.312l-32-64a32.008 32.008 0 0 0-28.616-17.688z" fill="#6E4123" /><path d="M729.44 507.928m-16 0a16 16 0 1 0 32 0 16 16 0 1 0-32 0Z" fill="#6E4123" /><path d="M609.432 643.904m-16 0a16 16 0 1 0 32 0 16 16 0 1 0-32 0Z" fill="#6E4123" /><path d="M729.44 763.928m-16 0a16 16 0 1 0 32 0 16 16 0 1 0-32 0Z" fill="#6E4123" /><path d="M849.44 643.92m-16 0a16 16 0 1 0 32 0 16 16 0 1 0-32 0Z" fill="#6E4123" /></svg>